<svg width="80" height="52" viewBox="0 0 80 52" fill="none" xmlns="http://www.w3.org/2000/svg">
<path fill-rule="evenodd" clip-rule="evenodd" d="M1.6722 49.6705C2.2826 50.0415 3.31698 50.4582 4.30023 50.4582C5.71648 50.4582 6.39304 49.7374 6.39304 48.7825C6.39304 47.8033 5.82473 47.2985 4.38743 46.7359C2.41491 46.006 1.4978 44.9143 1.4978 43.5762C1.4978 41.7668 2.93811 40.2797 5.25943 40.2797C6.35996 40.2797 7.33119 40.5838 7.90851 40.9761L7.43944 42.4601C7.01546 42.1803 6.23066 41.785 5.21433 41.785C4.03563 41.785 3.40418 42.4814 3.40418 43.3147C3.40418 44.2483 4.03563 44.6649 5.45488 45.2366C7.31916 45.9574 8.31144 46.9366 8.31144 48.6001C8.31144 50.592 6.80799 51.9848 4.26716 51.9848C3.07943 51.9848 1.97891 51.6594 1.20312 51.1972L1.6722 49.6705Z" fill="#333333"/>
<path fill-rule="evenodd" clip-rule="evenodd" d="M17.489 51.3492C16.9778 51.6077 15.8201 52 14.3618 52C11.0813 52 8.94336 49.707 8.94336 46.2645C8.94336 42.8099 11.2316 40.2797 14.7978 40.2797C15.9645 40.2797 16.9989 40.5838 17.5461 40.8879L17.0981 42.4388C16.629 42.1803 15.8893 41.9097 14.8098 41.9097C12.3141 41.9097 10.961 43.8317 10.961 46.1611C10.961 48.7582 12.5847 50.3578 14.7437 50.3578C15.8653 50.3578 16.608 50.0781 17.1733 49.8287L17.489 51.3492Z" fill="#333333"/>
<path fill-rule="evenodd" clip-rule="evenodd" d="M18.6758 35.2617H20.6603V51.7414H18.6758V35.2617Z" fill="#333333"/>
<path fill-rule="evenodd" clip-rule="evenodd" d="M24.1058 46.1517C24.1058 48.615 25.4589 50.4701 27.3864 50.4701C29.2717 50.4701 30.6879 48.6363 30.6879 46.1061C30.6879 44.2054 29.7618 41.809 27.4285 41.809C25.1071 41.809 24.1058 44.0351 24.1058 46.1517ZM32.7146 46.027C32.7146 50.1781 29.9031 51.9876 27.2961 51.9876C24.3734 51.9876 22.0762 49.7615 22.0762 46.2065C22.0762 42.472 24.4847 40.2672 27.4705 40.2672C30.6007 40.2794 32.7146 42.618 32.7146 46.027Z" fill="#333333"/>
<path fill-rule="evenodd" clip-rule="evenodd" d="M43.1917 48.6599C43.1917 49.8398 43.2127 50.8647 43.2789 51.7405H41.5258L41.4176 49.9067H41.3755C40.8854 50.8069 39.7067 51.999 37.7792 51.999C36.0683 51.999 34.0176 50.9985 34.0176 47.0846V40.5158H36.0021V46.7136C36.0021 48.8515 36.6576 50.3142 38.4317 50.3142C39.7608 50.3142 40.6779 49.3593 41.0357 48.4348C41.144 48.1551 41.2101 47.784 41.2101 47.3887V40.5037H43.1947V48.6599H43.1917Z" fill="#333333"/>
<path fill-rule="evenodd" clip-rule="evenodd" d="M52.7742 45.0815C52.7742 44.823 52.7531 44.4733 52.687 44.227C52.3923 42.9436 51.3128 41.8884 49.8304 41.8884C47.7827 41.8884 46.5709 43.7434 46.5709 46.2067C46.5709 48.4784 47.6715 50.3578 49.7853 50.3578C51.1144 50.3578 52.3261 49.4242 52.684 47.9158C52.7501 47.636 52.7712 47.3532 52.7712 47.04V45.0815H52.7742ZM54.7347 35.2618V48.8372C54.7347 49.8378 54.7798 50.9751 54.8219 51.7384H53.0658L52.9786 49.7921H52.9125C52.3231 51.042 51.0272 51.9969 49.2501 51.9969C46.6221 51.9969 44.5744 49.704 44.5744 46.2827C44.5533 42.5483 46.8205 40.2766 49.4576 40.2766C51.1474 40.2766 52.248 41.0855 52.7381 41.9735H52.7802V35.2588H54.7347V35.2618Z" fill="#333333"/>
<path fill-rule="evenodd" clip-rule="evenodd" d="M56.2168 50.5372C56.2168 49.704 56.7821 49.0745 57.5669 49.0745C58.3518 49.0745 58.896 49.6827 58.896 50.5372C58.896 51.3705 58.3518 52 57.5218 52C56.7641 52 56.2168 51.3705 56.2168 50.5372Z" fill="#333333"/>
<path fill-rule="evenodd" clip-rule="evenodd" d="M60.22 44.0138C60.22 42.6879 60.199 41.5506 60.1328 40.5044H61.8648L61.952 42.7305H62.0181C62.5083 41.2221 63.7291 40.2672 65.0581 40.2672C65.2656 40.2672 65.4189 40.2885 65.6024 40.3128V42.2348C65.3949 42.1892 65.1994 42.1892 64.9258 42.1892C63.5306 42.1892 62.5383 43.2566 62.2677 44.7863C62.2226 45.0661 62.2016 45.4158 62.2016 45.7412V51.7261H60.217V44.0138H60.22Z" fill="#808285"/>
<path fill-rule="evenodd" clip-rule="evenodd" d="M75.5657 48.6599C75.5657 49.8398 75.5868 50.8647 75.6529 51.7405H73.8969L73.7887 49.9067H73.7466C73.2564 50.8069 72.0777 51.999 70.1503 51.999C68.4394 51.999 66.3887 50.9985 66.3887 47.0846V40.5158H68.3732V46.7136C68.3732 48.8515 69.0287 50.3142 70.8028 50.3142C72.1319 50.3142 73.049 49.3593 73.4068 48.4348C73.515 48.1551 73.5932 47.784 73.5932 47.3887V40.5037H75.5778V48.6599H75.5657Z" fill="#808285"/>
<path fill-rule="evenodd" clip-rule="evenodd" d="M0.312718 34.6441C0.0872002 33.6831 0 32.7434 0 31.9041C0 30.2254 0.312718 29.0059 0.312718 29.0059C0.387891 28.4798 0.496139 27.9993 0.625436 27.528C0.721657 27.1934 0.817878 26.868 0.938154 26.5548C1.03437 26.2963 1.1306 26.05 1.25087 25.8067C1.34709 25.5938 1.45534 25.3809 1.56359 25.1924C1.65981 25.013 1.76806 24.8335 1.87631 24.6663C1.97253 24.5082 2.08078 24.3531 2.18903 24.2071C2.28525 24.0611 2.39349 23.9273 2.50174 23.7935C2.59796 23.6719 2.70621 23.5472 2.81446 23.4255C2.91068 23.313 3.01893 23.2005 3.12718 23.091C3.2234 22.9907 3.33165 22.8903 3.4399 22.7899C3.53612 22.6896 3.64437 22.5983 3.75262 22.5102C3.84884 22.422 3.95708 22.3429 4.06533 22.2517C4.16155 22.1726 4.2698 22.0935 4.37805 22.0175C4.4863 21.9384 4.58252 21.8715 4.69077 21.8046C4.79902 21.7377 4.89524 21.6708 5.00349 21.6039C5.11174 21.537 5.20796 21.4823 5.31621 21.4245C5.42445 21.3697 5.52067 21.312 5.62892 21.2572C5.73717 21.2025 5.83339 21.1569 5.94164 21.0991C6.04989 21.0535 6.14611 20.9987 6.25436 20.9531C6.36261 20.9075 6.45883 20.8649 6.56708 20.8193C6.67532 20.7737 6.77155 20.7402 6.87979 20.6977C6.98804 20.6642 7.08426 20.6186 7.19251 20.5851C7.30076 20.5517 7.39698 20.5182 7.50523 20.4848C7.61348 20.4513 7.7097 20.43 7.81795 20.3966C7.9262 20.3631 8.03144 20.3419 8.13067 20.3175C8.23891 20.2962 8.34416 20.2719 8.44338 20.2506C8.56065 20.2293 8.65687 20.205 8.7561 20.1959C8.8854 20.1746 8.98162 20.1624 9.06882 20.1503C9.17707 20.1381 9.23119 20.129 9.23119 20.129C9.23119 20.129 9.25224 19.6698 9.36951 18.8973C9.43266 18.4838 9.53188 17.9698 9.68223 17.3859C9.76943 17.0392 9.86565 16.6591 9.99495 16.2546C10.0821 15.9536 10.1874 15.6403 10.3077 15.3149C10.4039 15.0473 10.5001 14.7675 10.6204 14.4878C10.7166 14.2414 10.8128 13.9951 10.9331 13.7488C11.0293 13.5237 11.1255 13.3017 11.2458 13.0767C11.342 12.876 11.4503 12.6631 11.5585 12.4624C11.6548 12.2708 11.763 12.0823 11.8713 11.8815C11.9675 11.7021 12.0757 11.5227 12.184 11.3433C12.2802 11.176 12.3884 11.0087 12.4967 10.8384C12.5929 10.6803 12.7012 10.5131 12.8094 10.358C12.9056 10.1998 13.0139 10.0569 13.1221 9.89875C13.2183 9.75278 13.3266 9.60681 13.4348 9.46387C13.5311 9.33007 13.6393 9.1841 13.7476 9.05029C13.8438 8.91648 13.952 8.79179 14.0603 8.65799C14.1565 8.53634 14.2647 8.41166 14.373 8.27785C14.4692 8.15621 14.5775 8.03152 14.6857 7.919C14.7819 7.80648 14.8902 7.68484 14.9984 7.57232C15.0947 7.4598 15.2029 7.34728 15.3112 7.2378C15.4074 7.12528 15.5156 7.02492 15.6239 6.9124C15.7201 6.81204 15.8283 6.71169 15.9366 6.59917C16.0328 6.49881 16.1411 6.39846 16.2493 6.2981C16.3455 6.19774 16.4538 6.10651 16.562 6.00615C16.6582 5.91796 16.7665 5.82673 16.8747 5.72637C16.971 5.63818 17.0792 5.54695 17.1875 5.45876C17.2837 5.37057 17.3919 5.2915 17.5002 5.20027C17.5964 5.1212 17.7046 5.03301 17.8129 4.95394C17.9091 4.87487 18.0174 4.79884 18.1256 4.70761C18.2218 4.62854 18.3301 4.54947 18.4383 4.47344C18.5346 4.39438 18.6428 4.31835 18.751 4.2484C18.8473 4.16934 18.9555 4.10243 19.0638 4.02336C19.16 3.95646 19.2682 3.87739 19.3765 3.81049C19.4727 3.74358 19.581 3.67668 19.6892 3.60978C19.7854 3.54287 19.8937 3.47597 20.0019 3.40906C20.0981 3.34216 20.2064 3.27525 20.3146 3.20835C20.4109 3.14145 20.5191 3.08671 20.6274 3.01676C20.7236 2.94986 20.8318 2.89512 20.9401 2.83734C21.0363 2.7826 21.1445 2.71569 21.2528 2.65791C21.349 2.60317 21.4573 2.54539 21.5655 2.49065C21.6617 2.43591 21.77 2.37813 21.8782 2.32339C21.9744 2.26865 22.0827 2.21087 22.1909 2.16526C22.2872 2.11052 22.3954 2.0649 22.5037 2.00712C22.5367 1.99496 22.5668 1.97367 22.5999 1.9615C22.6751 1.92805 22.7382 1.8946 22.8134 1.86115C22.9216 1.81553 23.0178 1.76079 23.1261 1.71518C23.2343 1.66956 23.3306 1.62698 23.4388 1.58137C23.5471 1.53575 23.6433 1.49318 23.7515 1.44756C23.8598 1.40194 23.956 1.35937 24.0642 1.32592C24.1725 1.2803 24.2687 1.23772 24.377 1.20427C24.4852 1.15866 24.5814 1.1252 24.6897 1.09175C24.7979 1.0583 24.8942 1.01268 25.0024 0.979231C25.1106 0.945779 25.2069 0.912327 25.3151 0.878875C25.4234 0.845423 25.5196 0.811971 25.6278 0.778519C25.7361 0.745067 25.8323 0.72378 25.9406 0.690328C26.0488 0.656876 26.145 0.635588 26.2533 0.602136C26.3615 0.580848 26.4577 0.547396 26.566 0.523068C26.6742 0.50178 26.7705 0.468328 26.8787 0.443999C26.987 0.422712 27.0832 0.398383 27.1914 0.377095C27.2997 0.355808 27.3959 0.331479 27.5041 0.310191C27.6124 0.288904 27.7086 0.264575 27.8169 0.255452C27.9251 0.234164 28.0213 0.222 28.1296 0.200712C28.2378 0.188548 28.3341 0.16726 28.4423 0.155096C28.5505 0.142931 28.6468 0.133808 28.755 0.121644C28.8633 0.109479 28.9595 0.100356 29.0677 0.0881916C29.176 0.0760273 29.2722 0.066904 29.3805 0.066904C29.4887 0.0547396 29.5849 0.0456164 29.6932 0.0456164C29.8014 0.033452 29.8976 0.033452 30.0059 0.0243287C30.1141 0.0243287 30.2104 0.0121644 30.3186 0.0121644C30.4269 0.0121644 30.5231 0 30.6313 0C30.7396 0 30.8358 0 30.944 0C31.0523 0 31.1485 0 31.2568 0C31.365 0 31.4612 0.0121644 31.5695 0.0121644C31.6777 0.0121644 31.7739 0.0243287 31.8822 0.0243287C31.9904 0.0243287 32.0867 0.0364931 32.1949 0.0456164C32.3032 0.0577807 32.3994 0.0577807 32.5076 0.066904C32.6159 0.0790684 32.7121 0.0881916 32.8204 0.0881916C32.9286 0.100356 33.0248 0.109479 33.1331 0.121644C33.2413 0.133808 33.3375 0.142931 33.4458 0.155096C33.554 0.16726 33.6503 0.188548 33.7585 0.200712C33.8667 0.212876 33.963 0.234164 34.0712 0.246328C34.1795 0.267616 34.2757 0.27978 34.3839 0.301068C34.4922 0.322356 34.5884 0.346684 34.6967 0.355808C34.8049 0.377095 34.9011 0.401424 35.0094 0.422712C35.1176 0.443999 35.2138 0.468328 35.3221 0.489616C35.4303 0.510903 35.5266 0.535232 35.6348 0.568684C35.7431 0.589972 35.8393 0.623424 35.9475 0.647752C36.0558 0.66904 36.152 0.702492 36.2602 0.726821C36.3685 0.760273 36.4647 0.78156 36.573 0.815012C36.6812 0.848464 36.7774 0.869752 36.8857 0.903204C36.9939 0.936656 37.0902 0.970108 37.1984 1.00356C37.3066 1.03701 37.4029 1.07046 37.5111 1.10392C37.6194 1.13737 37.7156 1.17082 37.8238 1.21644C37.9321 1.24989 38.0283 1.2955 38.1366 1.32896C38.2448 1.36241 38.341 1.40803 38.4493 1.4506C38.5575 1.49622 38.6537 1.52967 38.762 1.57224C38.8702 1.61786 38.9665 1.65131 39.0747 1.69389C39.183 1.7395 39.2792 1.78208 39.3874 1.8277C39.4957 1.87331 39.5919 1.91589 39.7001 1.9615C39.8084 2.00712 39.9046 2.0497 40.0129 2.10748C40.1211 2.15309 40.2173 2.20783 40.3256 2.25345C40.4338 2.30819 40.53 2.3538 40.6383 2.41159C40.7465 2.46632 40.8428 2.51194 40.951 2.56972C41.0593 2.62446 41.1555 2.68224 41.2637 2.73698C41.372 2.79172 41.4682 2.8495 41.5765 2.90424C41.6847 2.95898 41.7809 3.01676 41.8892 3.08367C41.9974 3.13841 42.0936 3.20531 42.2019 3.26309C42.3101 3.31783 42.4064 3.38473 42.5146 3.44252C42.6229 3.50942 42.7191 3.56416 42.8273 3.6341C42.9356 3.70101 43.0318 3.76791 43.14 3.82569C43.2483 3.8926 43.3445 3.9595 43.4528 4.0264C43.561 4.09331 43.6572 4.16021 43.7655 4.23928C43.8737 4.30618 43.9699 4.38525 44.0782 4.45216C44.1864 4.53123 44.2827 4.59813 44.3909 4.6772C44.4992 4.75627 44.5954 4.83533 44.7036 4.90224C44.8119 4.98131 44.9081 5.06038 45.0163 5.1364C45.1246 5.21547 45.2208 5.30366 45.3291 5.37057C45.4373 5.45876 45.5456 5.53783 45.6418 5.6169C45.75 5.70509 45.8583 5.79632 45.9545 5.87539C46.0718 5.97574 46.171 6.06698 46.2672 6.143C46.3965 6.25552 46.5048 6.35588 46.5799 6.42278C46.6671 6.50185 46.6972 6.54443 46.6972 6.54443C46.7634 6.52314 46.8145 6.49881 46.8806 6.47752C46.9889 6.44407 47.0851 6.39846 47.1933 6.365C47.3016 6.33155 47.3978 6.28593 47.5061 6.25248C47.6143 6.21903 47.7105 6.18558 47.8188 6.15213C47.927 6.11867 48.0233 6.08522 48.1315 6.05177C48.2397 6.01832 48.336 5.98487 48.4442 5.95142C48.5525 5.91796 48.6487 5.88451 48.7569 5.86322C48.8652 5.82977 48.9614 5.80848 49.0697 5.77503C49.1779 5.74158 49.2741 5.72029 49.3824 5.68684C49.4906 5.66555 49.5868 5.6321 49.6951 5.60777C49.8033 5.58648 49.8996 5.55303 50.0078 5.5287C50.1161 5.50742 50.2123 5.48309 50.3205 5.4618C50.4288 5.44051 50.525 5.41618 50.6332 5.3949C50.7415 5.37361 50.8377 5.36144 50.946 5.34016C51.0542 5.31887 51.1504 5.3067 51.2587 5.28542C51.3669 5.26413 51.4632 5.25196 51.5714 5.2398C51.6796 5.22763 51.7759 5.20635 51.8841 5.19418C51.9924 5.18202 52.0886 5.1729 52.1968 5.16073C52.3051 5.14857 52.4013 5.13944 52.5096 5.12728C52.6178 5.11511 52.714 5.11511 52.8223 5.10599C52.9305 5.09383 53.0267 5.09383 53.135 5.0847C53.2432 5.0847 53.3395 5.07254 53.4477 5.07254C53.556 5.07254 53.6522 5.07254 53.7604 5.06038C53.8687 5.06038 53.9649 5.06038 54.0731 5.06038C54.1814 5.06038 54.2776 5.06038 54.3859 5.07254C54.4941 5.07254 54.5903 5.0847 54.6986 5.0847C54.8068 5.09687 54.903 5.09687 55.0113 5.10599C55.1195 5.11816 55.2158 5.12728 55.324 5.12728C55.4323 5.13944 55.5285 5.14857 55.6367 5.16073C55.745 5.1729 55.8412 5.19418 55.9494 5.20635C56.0577 5.21851 56.1539 5.2398 56.2622 5.25196C56.3704 5.27325 56.4666 5.28542 56.5749 5.3067C56.6831 5.32799 56.7794 5.35232 56.8876 5.37361C56.9959 5.3949 57.0921 5.41922 57.2003 5.45268C57.3086 5.47396 57.4048 5.50742 57.513 5.53174C57.6213 5.5652 57.7175 5.58648 57.8258 5.61994C57.934 5.65339 58.0302 5.68684 58.1385 5.72029C58.2467 5.75374 58.3429 5.7872 58.4512 5.83281C58.5594 5.86626 58.6557 5.91188 58.7639 5.95446C58.8722 6.00007 58.9684 6.04265 59.0766 6.08826C59.1849 6.13388 59.2811 6.17646 59.3893 6.23424C59.4976 6.27985 59.5938 6.33459 59.7021 6.38021C59.8103 6.43495 59.9065 6.48056 60.0148 6.5353C60.123 6.59004 60.2193 6.64782 60.3275 6.70256C60.4357 6.7573 60.532 6.82421 60.6402 6.89415C60.7485 6.96106 60.8447 7.02796 60.9529 7.09486C61.0612 7.16177 61.1574 7.24084 61.2657 7.30774C61.3739 7.38681 61.4701 7.45371 61.5784 7.53278C61.6866 7.61185 61.7828 7.69092 61.8911 7.76695C61.9993 7.85514 62.0956 7.93421 62.2038 8.02544C62.3121 8.11363 62.4083 8.20486 62.5165 8.29305C62.6248 8.39341 62.721 8.48464 62.8292 8.585C62.9375 8.68536 63.0337 8.78571 63.142 8.89823C63.2502 9.01075 63.3464 9.12327 63.4547 9.22363C63.5629 9.33615 63.6591 9.45779 63.7674 9.57031C63.8756 9.69196 63.9719 9.81664 64.0801 9.93828C64.1884 10.0721 64.2846 10.2059 64.3928 10.3397C64.5011 10.4857 64.6063 10.6317 64.7056 10.7655C64.8138 10.9236 64.9221 11.0787 65.0183 11.2247C65.1265 11.3919 65.2318 11.5592 65.331 11.7295C65.4392 11.9211 65.5475 12.1096 65.6437 12.2769C65.761 12.5019 65.8572 12.7026 65.9564 12.8912C66.0977 13.1923 66.203 13.4386 66.2691 13.5967C66.3233 13.7305 66.3443 13.8096 66.3443 13.8096C66.3443 13.8096 66.4195 13.8309 66.5698 13.8887C66.657 13.9221 66.7533 13.9556 66.8826 14.0012C66.9788 14.0346 67.075 14.0803 67.1953 14.1137C67.2915 14.1472 67.3877 14.1928 67.508 14.2353C67.6042 14.281 67.7125 14.3144 67.8207 14.357C67.9169 14.4026 68.0252 14.4452 68.1334 14.4908C68.2296 14.5364 68.3379 14.579 68.4461 14.6368C68.5424 14.6824 68.6506 14.725 68.7589 14.7827C68.8551 14.8284 68.9633 14.8831 69.0716 14.9409C69.1678 14.9956 69.276 15.0412 69.3843 15.096C69.4805 15.1507 69.5888 15.2085 69.697 15.2632C69.7932 15.318 69.9015 15.3758 70.0097 15.4305C70.1059 15.4852 70.2142 15.543 70.3224 15.6099C70.4187 15.6647 70.5269 15.7316 70.6352 15.7893C70.7314 15.8441 70.8396 15.911 70.9479 15.9809C71.0441 16.0478 71.1524 16.1026 71.2606 16.1725C71.3568 16.2394 71.4651 16.3063 71.5733 16.3732C71.6695 16.4401 71.7778 16.507 71.886 16.5861C71.9823 16.653 72.0905 16.7321 72.1988 16.799C72.307 16.8781 72.4032 16.945 72.5115 17.024C72.6197 17.1031 72.7159 17.1791 72.8242 17.2582C72.9324 17.3373 73.0287 17.4163 73.1369 17.5045C73.2452 17.5836 73.3414 17.6718 73.4496 17.7508C73.5579 17.839 73.6541 17.9181 73.7623 18.0093C73.8706 18.0975 73.9668 18.1888 74.0751 18.277C74.1833 18.3651 74.2795 18.4685 74.3878 18.5567C74.496 18.6571 74.5923 18.7575 74.7005 18.8578C74.8087 18.9582 74.905 19.0585 75.0132 19.171C75.1215 19.2836 75.2177 19.3839 75.3259 19.4964C75.4342 19.609 75.5304 19.7215 75.6386 19.8431C75.7469 19.9648 75.8431 20.0773 75.9514 20.202C76.0596 20.3236 76.1558 20.4605 76.2641 20.5821C76.3723 20.7159 76.4686 20.8497 76.5768 20.9835C76.6851 21.1295 76.7813 21.2755 76.8895 21.4184C76.9978 21.5765 77.094 21.7316 77.2022 21.8898C77.3105 22.057 77.4067 22.2243 77.515 22.3946C77.6232 22.574 77.7194 22.7626 77.8277 22.9542C77.9359 23.1549 78.0321 23.3556 78.1404 23.5685C78.2486 23.7935 78.3449 24.0277 78.4531 24.2618C78.5614 24.5203 78.6666 24.7879 78.7658 25.0677C78.8621 25.3475 78.9583 25.6273 79.0334 25.9283C79.0455 25.974 79.0545 26.0074 79.0665 26.05C79.1838 26.4514 79.28 26.8437 79.3792 27.2238C79.4965 27.7378 79.6048 28.2304 79.692 28.6897C80.155 31.2837 80.0468 33.2665 79.692 34.7323C79.6048 35.1003 79.4995 35.447 79.3792 35.7511C79.283 36.0096 79.1748 36.2528 79.0665 36.4779C78.9703 36.6786 78.8621 36.8702 78.7538 37.0374C78.6456 37.2047 78.5493 37.3628 78.4411 37.4967C78.3328 37.6426 78.2366 37.7643 78.1284 37.8768C78.0201 37.9984 77.9149 38.111 77.8156 38.2022C77.6984 38.3147 77.5901 38.4029 77.5029 38.4698C77.3646 38.5823 77.2654 38.6371 77.2654 38.6371C77.3406 38.412 77.4157 38.1566 77.5029 37.8433C77.6202 37.4085 77.7284 36.8824 77.8156 36.265C77.987 35.0334 78.0532 33.4794 77.8156 31.6456C77.7405 31.0739 77.6443 30.4809 77.5029 29.8666C77.4157 29.4651 77.3105 29.0485 77.1902 28.6258C77.094 28.2913 76.9978 27.9537 76.8775 27.6192C76.7813 27.3272 76.6851 27.0383 76.5648 26.7464C76.4686 26.4879 76.3723 26.2203 76.2521 25.9618C76.1649 25.7611 76.0807 25.5482 75.9935 25.3475C75.9814 25.314 75.9604 25.2806 75.9514 25.2471C75.8551 25.0343 75.7589 24.8214 75.6386 24.6207C75.5424 24.4291 75.4342 24.2527 75.3259 24.0733C75.2297 23.906 75.1215 23.7479 75.0132 23.5806C74.917 23.4346 74.8087 23.2887 74.7005 23.1457C74.6043 23.0119 74.496 22.8781 74.3878 22.7443C74.2916 22.6227 74.1833 22.498 74.0751 22.3763C73.9788 22.2547 73.8706 22.1422 73.7623 22.0297C73.6661 21.9171 73.5579 21.8046 73.4496 21.7043C73.3534 21.6039 73.2452 21.4914 73.1369 21.391C73.0407 21.2907 72.9324 21.1903 72.8242 21.0991C72.728 21.0109 72.6197 20.9075 72.5115 20.8193C72.4153 20.7311 72.307 20.6399 72.1988 20.5517C72.1025 20.4635 71.9943 20.3844 71.886 20.2932C71.7898 20.2141 71.6816 20.1259 71.5733 20.0469C71.4771 19.9678 71.3688 19.8918 71.2606 19.8127C71.1644 19.7336 71.0561 19.6546 70.9479 19.5877C70.8396 19.5086 70.7434 19.4417 70.6352 19.3748C70.5269 19.3079 70.4307 19.2288 70.3224 19.1619C70.2142 19.095 70.118 19.0281 70.0097 18.9612C69.9015 18.8943 69.8053 18.8274 69.697 18.7696C69.5888 18.7027 69.4925 18.648 69.3843 18.578C69.276 18.5111 69.1798 18.4564 69.0716 18.3986C68.9633 18.3439 68.8671 18.277 68.7589 18.2192C68.6506 18.1644 68.5544 18.1067 68.4461 18.0519C68.3379 17.9972 68.2417 17.9394 68.1334 17.8847C68.0252 17.8299 67.929 17.7721 67.8207 17.7296C67.7125 17.6748 67.6162 17.6292 67.508 17.5714C67.3997 17.5167 67.3035 17.4711 67.1953 17.4255C67.087 17.3798 66.9908 17.3251 66.8826 17.2795C66.7743 17.2339 66.6781 17.1913 66.5698 17.1457C66.4616 17.1001 66.3654 17.0575 66.2571 17.0119C66.1489 16.9662 66.0527 16.9237 65.9444 16.8781C65.8362 16.8324 65.7399 16.7899 65.6317 16.7564C65.5234 16.7108 65.4272 16.6773 65.319 16.6348C65.2107 16.5892 65.1145 16.5557 65.0062 16.5222C64.898 16.4766 64.7928 16.4432 64.6935 16.4097C64.5853 16.3641 64.48 16.3307 64.3808 16.2972C64.2635 16.2516 64.1553 16.2181 64.0681 16.1969C63.9057 16.1512 63.8305 16.1178 63.8305 16.1178C63.8095 16.0722 63.7884 16.0296 63.7674 15.984C63.6712 15.7711 63.5629 15.5704 63.4547 15.3697C63.3585 15.169 63.2502 14.9774 63.142 14.7888C63.0457 14.6094 62.9375 14.4209 62.8292 14.2506C62.733 14.0833 62.6248 13.916 62.5165 13.7457C62.4203 13.5876 62.3121 13.4325 62.2038 13.2744C62.1076 13.1284 61.9993 12.9824 61.8911 12.8395C61.7949 12.6935 61.6866 12.5597 61.5784 12.4259C61.4822 12.2921 61.3739 12.1674 61.2657 12.0458C61.1694 11.9241 61.0612 11.7994 60.9529 11.6869C60.8567 11.5744 60.7485 11.4619 60.6402 11.3524C60.544 11.2399 60.4357 11.1395 60.3275 11.0392C60.2313 10.9388 60.123 10.8384 60.0148 10.7472C59.9186 10.659 59.8103 10.5556 59.7021 10.4674C59.6058 10.3792 59.4976 10.3002 59.3893 10.2089C59.2811 10.1299 59.1849 10.0538 59.0766 9.97478C58.9684 9.89571 58.8722 9.82881 58.7639 9.74974C58.6557 9.68283 58.5594 9.61593 58.4512 9.54903C58.3429 9.48212 58.2467 9.41522 58.1385 9.35744C58.0302 9.3027 57.934 9.23579 57.8258 9.17801C57.7175 9.12327 57.6213 9.06549 57.513 9.01988C57.4048 8.96514 57.3086 8.91952 57.2003 8.8739C57.0921 8.82829 56.9959 8.78571 56.8876 8.7401C56.7794 8.69448 56.6831 8.66103 56.5749 8.61845C56.4666 8.585 56.3704 8.53938 56.2622 8.5181C56.1539 8.48464 56.0577 8.45119 55.9494 8.4299C55.8412 8.39645 55.745 8.37516 55.6367 8.35084C55.5285 8.32955 55.4323 8.30522 55.324 8.28393C55.2158 8.26264 55.1195 8.23832 55.0113 8.22919C54.903 8.2079 54.8068 8.19574 54.6986 8.18358C54.5903 8.17141 54.4941 8.16229 54.3859 8.15012C54.2776 8.13796 54.1814 8.12884 54.0731 8.12884C53.9649 8.11667 53.8687 8.11667 53.7604 8.11667C53.6522 8.11667 53.556 8.11667 53.4477 8.10451C53.3395 8.10451 53.2432 8.10451 53.135 8.10451C53.0267 8.10451 52.9305 8.11667 52.8223 8.11667C52.714 8.12884 52.6178 8.12884 52.5096 8.13796C52.4013 8.15012 52.3051 8.15925 52.1968 8.17141C52.0886 8.18358 51.9924 8.1927 51.8841 8.21703C51.7759 8.22919 51.6796 8.25048 51.5714 8.26264C51.4632 8.28393 51.3669 8.2961 51.2587 8.31738C51.1504 8.33867 51.0542 8.363 50.946 8.38429C50.8377 8.40557 50.7415 8.4299 50.6332 8.46336C50.525 8.48464 50.4288 8.5181 50.3205 8.54242C50.2123 8.57588 50.1161 8.59716 50.0078 8.63062C49.8996 8.66407 49.8033 8.69752 49.6951 8.73097C49.5868 8.76442 49.4906 8.79788 49.3824 8.84349C49.2741 8.87694 49.1779 8.92256 49.0697 8.95601C48.9614 9.00163 48.8652 9.03508 48.7569 9.07766C48.6487 9.12327 48.5525 9.16585 48.4442 9.21146C48.336 9.25708 48.2397 9.29966 48.1315 9.34527C48.0233 9.39089 47.927 9.44563 47.8188 9.49125C47.7105 9.54599 47.6143 9.5916 47.5061 9.64938C47.3978 9.70412 47.3016 9.7619 47.1933 9.81664C47.0851 9.87138 46.9799 9.93828 46.8806 9.99607C46.7724 10.063 46.6641 10.1177 46.5679 10.1755C46.4506 10.2424 46.3514 10.3093 46.2552 10.3762C46.1139 10.4644 46.0176 10.5313 45.9425 10.5891C45.8793 10.6347 45.8463 10.656 45.8463 10.656C45.7801 10.5678 45.7049 10.4766 45.6298 10.3762C45.5335 10.2546 45.4373 10.1299 45.317 9.99607C45.2208 9.88354 45.1246 9.7619 45.0043 9.63722C44.9081 9.5247 44.7999 9.41218 44.6916 9.29053C44.5954 9.17801 44.4871 9.07766 44.3789 8.96514C44.2827 8.86478 44.1744 8.76442 44.0662 8.6519C43.9699 8.55155 43.8617 8.45119 43.7534 8.35084C43.6572 8.26264 43.549 8.15925 43.4407 8.05889C43.3445 7.9707 43.2363 7.87947 43.128 7.77911C43.0318 7.69092 42.9235 7.59969 42.8153 7.51149C42.7191 7.4233 42.6108 7.34423 42.5026 7.253C42.4064 7.17393 42.2981 7.08574 42.1899 7.00667C42.0936 6.92761 41.9854 6.85158 41.8771 6.77251C41.7809 6.69344 41.6727 6.61437 41.5644 6.54747C41.4682 6.4684 41.36 6.4015 41.2517 6.32243C41.1555 6.25552 41.0472 6.17646 40.939 6.10955C40.8428 6.04265 40.7345 5.97574 40.6263 5.90884C40.53 5.84194 40.4218 5.77503 40.3135 5.71725C40.2173 5.65035 40.1091 5.59561 40.0008 5.52566C39.9046 5.47092 39.7964 5.40402 39.6881 5.34624C39.5919 5.2915 39.4836 5.23372 39.3754 5.17898C39.2792 5.12424 39.1709 5.06646 39.0627 5.01172C38.9665 4.95698 38.8582 4.91136 38.75 4.85358C38.6537 4.79884 38.5455 4.75322 38.4372 4.70761C38.341 4.66199 38.2328 4.60725 38.1245 4.56164C38.0283 4.51602 37.9201 4.47344 37.8118 4.42783C37.7156 4.38221 37.6073 4.33964 37.4991 4.29402C37.4029 4.2484 37.2946 4.21495 37.1864 4.17238C37.0901 4.13892 36.9819 4.09331 36.8737 4.05986C36.7774 4.0264 36.6692 3.99295 36.5609 3.94734C36.4647 3.91388 36.3565 3.88043 36.2482 3.84698C36.152 3.81353 36.0437 3.78008 35.9355 3.74662C35.8393 3.71317 35.731 3.69188 35.6228 3.65843C35.5266 3.62498 35.4183 3.60369 35.3101 3.57936C35.2138 3.55808 35.1056 3.52462 34.9973 3.5003C34.9011 3.47901 34.7929 3.45468 34.6846 3.43339C34.5884 3.4121 34.4802 3.38778 34.3719 3.36649C34.2757 3.3452 34.1674 3.33304 34.0592 3.31175C33.963 3.29046 33.8547 3.2783 33.7465 3.25701C33.6503 3.24484 33.542 3.22356 33.4338 3.21139C33.3375 3.19923 33.2293 3.1901 33.121 3.16578C33.0248 3.15361 32.9166 3.14449 32.8083 3.13232C32.7121 3.12016 32.6039 3.11104 32.4956 3.11104C32.3994 3.09887 32.2911 3.09887 32.1829 3.08975C32.0867 3.07758 31.9784 3.07758 31.8702 3.07758C31.7739 3.07758 31.6657 3.06542 31.5574 3.06542C31.4612 3.06542 31.353 3.06542 31.2447 3.06542C31.1485 3.06542 31.0403 3.06542 30.932 3.06542C30.8358 3.06542 30.7275 3.07758 30.6193 3.07758C30.5231 3.07758 30.4148 3.08975 30.3066 3.08975C30.2104 3.10191 30.1021 3.10191 29.9939 3.11104C29.8976 3.1232 29.7894 3.13232 29.6811 3.13232C29.5729 3.14449 29.4767 3.15361 29.3684 3.16578C29.2722 3.17794 29.164 3.18706 29.0557 3.21139C28.9595 3.22356 28.8512 3.24484 28.743 3.25701C28.6347 3.26917 28.5385 3.29046 28.4303 3.30262C28.334 3.32391 28.2258 3.33608 28.1176 3.35736C28.0213 3.37865 27.9131 3.40298 27.8048 3.4121C27.7086 3.43339 27.6004 3.45772 27.4921 3.47901C27.3959 3.5003 27.2876 3.52462 27.1794 3.55808C27.0712 3.57936 26.9749 3.61282 26.8667 3.63714C26.7705 3.65843 26.6622 3.69188 26.554 3.72534C26.4577 3.75879 26.3495 3.78008 26.2412 3.81353C26.133 3.84698 26.0368 3.88043 25.9285 3.91388C25.8323 3.94734 25.7241 3.98079 25.6158 4.01424C25.5076 4.04769 25.4113 4.08114 25.3031 4.12676C25.2069 4.16021 25.0986 4.20583 24.9904 4.23928C24.8942 4.27273 24.7859 4.31835 24.6777 4.36092C24.5694 4.40654 24.4732 4.43999 24.3649 4.48257C24.2687 4.52818 24.1605 4.57076 24.0522 4.61638C23.956 4.66199 23.8688 4.69544 23.7726 4.73802C23.7605 4.73802 23.7515 4.75018 23.7395 4.75018C23.6313 4.7958 23.535 4.85054 23.4268 4.89616C23.3185 4.94177 23.2223 4.99651 23.1141 5.04213C23.0058 5.09687 22.9096 5.14248 22.8013 5.20027C22.6931 5.25501 22.5969 5.31279 22.4886 5.36753C22.3804 5.42227 22.2842 5.48005 22.1759 5.53479C22.0677 5.58953 21.9714 5.64731 21.8632 5.71421C21.7549 5.76895 21.6587 5.83585 21.5505 5.89363C21.4422 5.96054 21.346 6.01528 21.2378 6.08522C21.1295 6.15213 21.0333 6.21903 20.925 6.28593C20.8168 6.35284 20.7206 6.41974 20.6123 6.49881C20.5041 6.56572 20.4079 6.64478 20.2996 6.71169C20.1914 6.79076 20.0951 6.85766 19.9869 6.93673C19.8786 7.0158 19.7824 7.09486 19.6742 7.17089C19.5659 7.24996 19.4697 7.32903 19.3615 7.41722C19.2532 7.50541 19.157 7.58448 19.0487 7.67571C18.9405 7.76391 18.8443 7.85514 18.736 7.94333C18.6278 8.03152 18.5315 8.13492 18.4233 8.22311C18.315 8.32347 18.2188 8.4147 18.1106 8.51505C18.0023 8.61541 17.9061 8.71577 17.7979 8.81612C17.6896 8.91648 17.5934 9.029 17.4851 9.12935C17.3769 9.24187 17.2807 9.3544 17.1724 9.45475C17.0642 9.56727 16.968 9.68892 16.8597 9.80144C16.7515 9.92308 16.6552 10.0478 16.547 10.1603C16.4387 10.2819 16.3425 10.4188 16.2343 10.5404C16.126 10.6742 16.0298 10.808 15.9216 10.9418C15.8133 11.0757 15.7171 11.2216 15.6088 11.3554C15.5006 11.5014 15.4044 11.6474 15.2961 11.7903C15.1879 11.9484 15.0916 12.1035 14.9834 12.2617C14.8751 12.4289 14.7789 12.5962 14.6707 12.7543C14.5624 12.9338 14.4662 13.101 14.358 13.2804C14.2497 13.472 14.1535 13.6606 14.0452 13.84C13.937 14.0407 13.8408 14.2414 13.7325 14.4452C13.6243 14.6581 13.5281 14.8801 13.4198 15.0929C13.3116 15.3271 13.2063 15.5643 13.1071 15.7985C12.9988 16.057 12.8936 16.3124 12.7944 16.5709C12.6861 16.8629 12.5809 17.1518 12.4817 17.4224C12.3644 17.7569 12.2682 18.0823 12.1689 18.3956C12.0517 18.797 11.9554 19.1802 11.8562 19.536C11.7269 20.0834 11.6187 20.5639 11.5435 20.9805C11.3811 21.8654 11.3511 22.3916 11.3511 22.3916C11.318 22.4037 11.2759 22.4128 11.2428 22.4128C11.1346 22.4341 11.0383 22.4585 10.9301 22.4797C10.8218 22.501 10.7256 22.5254 10.6174 22.5588C10.5091 22.5801 10.4129 22.6136 10.3047 22.6379C10.1964 22.6713 10.1002 22.6926 9.99194 22.7261C9.88369 22.7595 9.78747 22.7808 9.67922 22.8143C9.57097 22.8477 9.47475 22.8812 9.3665 22.9146C9.25826 22.9481 9.16203 22.9815 9.05379 23.015C8.94554 23.0484 8.84932 23.094 8.74107 23.1275C8.63282 23.1731 8.5366 23.2066 8.42835 23.2491C8.3201 23.2948 8.22388 23.3282 8.11563 23.3708C8.00738 23.4164 7.91116 23.459 7.80291 23.5046C7.69467 23.5502 7.59844 23.6049 7.4902 23.6506C7.38195 23.7053 7.28573 23.7509 7.17748 23.8087C7.06923 23.8634 6.97301 23.9212 6.86476 23.976C6.75651 24.0307 6.66029 24.0976 6.55204 24.1554C6.44379 24.2223 6.34757 24.277 6.23932 24.347C6.13108 24.4139 6.03485 24.4808 5.92661 24.5477C5.81836 24.6146 5.72214 24.6937 5.61389 24.7727C5.50564 24.8518 5.40942 24.9309 5.30117 25.0069C5.19292 25.086 5.0967 25.1742 4.98845 25.2654C4.8802 25.3536 4.78398 25.4448 4.67573 25.5452C4.56749 25.6455 4.47127 25.7459 4.36302 25.8462C4.25477 25.9588 4.15855 26.0591 4.0503 26.1716C3.94205 26.2842 3.84583 26.4058 3.73758 26.5305C3.62933 26.6521 3.53311 26.789 3.42486 26.9228C3.31661 27.0688 3.22039 27.2026 3.11214 27.3485C3.0039 27.5067 2.89865 27.6739 2.79943 27.829C2.69118 28.0084 2.58594 28.197 2.48671 28.3764C2.37846 28.5893 2.27322 28.8022 2.17399 29.0151C2.06574 29.2735 1.9605 29.529 1.86127 29.7875C1.744 30.122 1.63576 30.4474 1.54856 30.7819C1.41024 31.2959 1.31101 31.8098 1.23584 32.3025C0.968223 34.1606 1.11857 35.7602 1.23584 36.5874C1.28996 36.9675 1.33206 37.1804 1.33206 37.1804C1.29898 37.1256 1.26891 37.0679 1.23584 37.0131C1.12759 36.8246 1.02235 36.6208 0.923119 36.4323C0.80585 36.1859 0.709629 35.9396 0.610401 35.6933C0.493132 35.3284 0.387891 34.9938 0.312718 34.6441Z" fill="url(#paint0_linear_4913_9603)"/>
<defs>
<linearGradient id="paint0_linear_4913_9603" x1="0" y1="19.3126" x2="79.743" y2="19.3126" gradientUnits="userSpaceOnUse">
<stop stop-color="#4DB849"/>
<stop offset="0.5312" stop-color="#FFE500"/>
<stop offset="1" stop-color="#F6841F"/>
</linearGradient>
</defs>
</svg>
