<svg width="24" height="24" viewBox="0 0 24 24" fill="none" xmlns="http://www.w3.org/2000/svg">
<rect y="0.00012207" width="23.9998" height="23.9998" rx="6" fill="#009245"/>
<path d="M11.9904 12.2389C10.0336 12.2389 8.40717 10.5967 8.40717 8.65347C8.40717 6.64304 10.0336 5.00012 11.9911 5.00012C14.0152 5.00012 15.5744 6.64234 15.5744 8.65347C15.5675 10.6401 13.9681 12.2459 12.0022 12.2396C11.9981 12.2396 11.9946 12.2396 11.9904 12.2389ZM11.9904 7.11205C11.162 7.11205 10.5316 7.81556 10.5316 8.65417C10.5316 9.49138 11.162 10.1284 11.9911 10.1284C12.8535 10.1284 13.4506 9.49138 13.4506 8.65417C13.4513 7.81486 12.8535 7.11205 11.9904 7.11205ZM13.4174 15.2224L15.4421 17.1999C15.8404 17.6346 15.8404 18.2716 15.4421 18.6741C15.0112 19.1088 14.347 19.1088 14.0152 18.6741L11.9911 16.663L10.0336 18.6741C9.83479 18.875 9.5688 18.9751 9.26956 18.9751C9.03751 18.9751 8.77221 18.8743 8.53947 18.6741C8.14117 18.2716 8.14117 17.6346 8.53947 17.1992L10.5967 15.2216C9.85419 14.9997 9.14072 14.684 8.47505 14.2843C7.97701 14.0162 7.87795 13.3463 8.14325 12.843C8.47505 12.3404 9.07214 12.2067 9.60344 12.542C11.0699 13.4464 12.9145 13.4464 14.3809 12.542C14.9122 12.2067 15.5418 12.3404 15.8404 12.843C16.1396 13.3463 16.0059 14.0155 15.5411 14.2843C14.9115 14.6868 14.1814 14.9885 13.4181 15.2231L13.4174 15.2224Z" fill="white"/>
</svg>
