<svg width="56" height="56" viewBox="0 0 56 56" fill="none" xmlns="http://www.w3.org/2000/svg">
<rect opacity="0.1" width="56" height="56" rx="28" fill="#009245"/>
<path d="M38.6531 21.1633C38.6531 18.3648 33.9248 16 28.3265 16C22.7283 16 18 18.3648 18 21.1633V23.7449C18 26.5434 22.7283 28.9082 28.3265 28.9082C33.9248 28.9082 38.6531 26.5434 38.6531 23.7449V21.1633ZM28.3265 37.9439C22.7283 37.9439 18 35.5791 18 32.7806V36.6531C18 39.4516 22.7283 41.8163 28.3265 41.8163C33.9248 41.8163 38.6531 39.4516 38.6531 36.6531V32.7806C38.6531 35.5791 33.9248 37.9439 28.3265 37.9439Z" fill="#009245"/>
<path d="M38.6531 26.3265C38.6531 29.125 33.9248 31.4898 28.3265 31.4898C22.7283 31.4898 18 29.125 18 26.3265V30.199C18 32.9975 22.7283 35.3623 28.3265 35.3623C33.9248 35.3623 38.6531 32.9975 38.6531 30.199V26.3265Z" fill="#009245"/>
</svg>
