<svg width="56" height="56" viewBox="0 0 56 56" fill="none" xmlns="http://www.w3.org/2000/svg">
<rect opacity="0.1" width="56" height="56" rx="28" fill="#009245"/>
<path d="M24.1469 41.0115C25.3209 41.3327 26.5323 41.4964 27.7494 41.4983L27.9433 41.4969C28.6382 41.4882 29.3195 41.3041 29.9241 40.9615C30.5287 40.6189 31.0369 40.1291 31.4014 39.5375C32.1467 38.333 32.2264 36.8521 31.6118 35.5775L31.3396 35.0069C30.7167 33.7116 31.2062 32.5374 31.8731 31.8705C32.5399 31.2036 33.7169 30.7141 35.0081 31.337H35.0094L35.5773 31.6106C36.2017 31.9126 36.8924 32.0516 37.585 32.0148C38.2777 31.9781 38.9497 31.7666 39.5387 31.4003C40.1306 31.036 40.6208 30.5279 40.9636 29.9233C41.3064 29.3186 41.4908 28.6371 41.4994 27.9421C41.5166 26.6606 41.3532 25.3831 41.0141 24.1471C39.5868 18.885 35.0287 14.8604 29.6758 14.1303C25.3459 13.5431 21.0944 14.958 18.0282 18.0256C14.9619 21.0933 13.5402 25.3379 14.1314 29.6733C14.8602 35.0275 18.8862 39.5843 24.1469 41.0115ZM32.5619 19.4983C33.1089 19.4983 33.6335 19.7156 34.0203 20.1024C34.4071 20.4891 34.6244 21.0138 34.6244 21.5608C34.6244 22.1078 34.4071 22.6324 34.0203 23.0192C33.6335 23.406 33.1089 23.6233 32.5619 23.6233C32.0149 23.6233 31.4903 23.406 31.1035 23.0192C30.7167 22.6324 30.4994 22.1078 30.4994 21.5608C30.4994 21.0138 30.7167 20.4891 31.1035 20.1024C31.4903 19.7156 32.0149 19.4983 32.5619 19.4983ZM25.6869 18.1233C26.2339 18.1233 26.7586 18.3406 27.1453 18.7274C27.5321 19.1141 27.7494 19.6388 27.7494 20.1858C27.7494 20.7328 27.5321 21.2574 27.1453 21.6442C26.7586 22.031 26.2339 22.2483 25.6869 22.2483C25.1399 22.2483 24.6153 22.031 24.2285 21.6442C23.8417 21.2574 23.6244 20.7328 23.6244 20.1858C23.6244 19.6388 23.8417 19.1141 24.2285 18.7274C24.6153 18.3406 25.1399 18.1233 25.6869 18.1233ZM23.6244 32.569C23.6244 33.116 23.4071 33.6406 23.0203 34.0274C22.6336 34.4142 22.1089 34.6315 21.5619 34.6315C21.0149 34.6315 20.4903 34.4142 20.1035 34.0274C19.7167 33.6406 19.4994 33.116 19.4994 32.569C19.4994 32.022 19.7167 31.4974 20.1035 31.1106C20.4903 30.7238 21.0149 30.5065 21.5619 30.5065C22.1089 30.5065 22.6336 30.7238 23.0203 31.1106C23.4071 31.4974 23.6244 32.022 23.6244 32.569ZM20.1869 23.6315C20.7341 23.6317 21.2588 23.8492 21.6456 24.2363C22.0324 24.6233 22.2496 25.1482 22.2494 25.6954C22.2493 26.2426 22.0317 26.7673 21.6447 27.1541C21.2576 27.5409 20.7328 27.7581 20.1856 27.7579C19.6384 27.7577 19.1137 27.5402 18.7269 27.1531C18.3401 26.7661 18.1229 26.2412 18.1231 25.694C18.1232 25.1468 18.3408 24.6221 18.7278 24.2353C19.1149 23.8485 19.6397 23.6313 20.1869 23.6315Z" fill="#009245"/>
</svg>
