<svg width="56" height="56" viewBox="0 0 56 56" fill="none" xmlns="http://www.w3.org/2000/svg">
<rect opacity="0.1" width="56" height="56" rx="28" fill="#009245"/>
<path d="M28 14C20.2804 14 14 20.2804 14 28V33.8002C14 35.2338 15.2558 36.4 16.8 36.4H18.2C18.5713 36.4 18.9274 36.2525 19.1899 35.99C19.4525 35.7274 19.6 35.3713 19.6 35V27.7998C19.6 27.4285 19.4525 27.0724 19.1899 26.8098C18.9274 26.5473 18.5713 26.3998 18.2 26.3998H16.9288C17.7072 20.9818 22.3692 16.8 28 16.8C33.6308 16.8 38.2928 20.9818 39.0712 26.3998H37.8C37.4287 26.3998 37.0726 26.5473 36.81 26.8098C36.5475 27.0724 36.4 27.4285 36.4 27.7998V36.4C36.4 37.9442 35.1442 39.2 33.6 39.2H30.8V37.8H25.2V42H33.6C36.6884 42 39.2 39.4884 39.2 36.4C40.7442 36.4 42 35.2338 42 33.8002V28C42 20.2804 35.7196 14 28 14Z" fill="#009245"/>
</svg>
