<svg width="56" height="56" viewBox="0 0 56 56" fill="none" xmlns="http://www.w3.org/2000/svg">
<rect opacity="0.1" width="56" height="56" rx="28" fill="#009245"/>
<path d="M24.4245 28.4091C27.9761 28.4091 30.8644 25.5208 30.8644 21.9692C30.8644 18.4176 27.9761 15.5293 24.4245 15.5293C20.8728 15.5293 17.9845 18.4176 17.9845 21.9692C17.9845 25.5208 20.8728 28.4091 24.4245 28.4091ZM26.8394 30.0191H22.0095C16.6821 30.0191 12.3496 34.3516 12.3496 39.679V41.289H36.4993V39.679C36.4993 34.3516 32.1669 30.0191 26.8394 30.0191Z" fill="#009245"/>
<path d="M35.8624 26.8765C36.843 25.2054 37.2664 23.2658 37.0715 21.3381C36.7833 18.4659 35.1798 15.927 32.5587 14.1898L30.7797 16.872C32.5813 18.0667 33.6777 19.7684 33.8677 21.6601C33.9553 22.5393 33.8458 23.427 33.5472 24.2586C33.2487 25.0902 32.7686 25.8448 32.1418 26.4675L30.2227 28.3866L32.8276 29.1514C39.641 31.1478 39.7199 37.9998 39.7199 38.0691H42.9399C42.9399 35.1888 41.4008 29.5603 35.8624 26.8765Z" fill="#009245"/>
</svg>
