<svg width="24" height="24" viewBox="0 0 24 24" fill="none" xmlns="http://www.w3.org/2000/svg">
<rect y="0.00012207" width="23.9998" height="23.9998" rx="6" fill="#009245"/>
<path d="M18.679 8.54188C18.7768 8.22933 18.679 8.00012 18.2165 8.00012H16.6843C16.2945 8.00012 16.1163 8.19841 16.0185 8.41619C16.0185 8.41619 15.2395 10.2438 14.1356 11.4288C13.7793 11.7736 13.6165 11.8825 13.4223 11.8825C13.3252 11.8825 13.1841 11.7736 13.1841 11.4611V8.54188C13.1841 8.16682 13.0716 8.00012 12.7467 8.00012H10.3391C10.096 8.00012 9.94929 8.17354 9.94929 8.33889C9.94929 8.69379 10.5012 8.77579 10.5578 9.77596V11.9457C10.5578 12.4209 10.4691 12.5076 10.2735 12.5076C9.75436 12.5076 8.49119 10.6733 7.74153 8.57347C7.59551 8.16547 7.44809 8.00079 7.05685 8.00079H5.52539C5.08733 8.00079 5 8.19908 5 8.41686C5 8.80805 5.5191 10.7439 7.41805 13.3041C8.68402 15.0524 10.4663 16.0001 12.09 16.0001C13.0632 16.0001 13.1834 15.7897 13.1834 15.4268V14.1053C13.1834 13.6845 13.2763 13.5999 13.5844 13.5999C13.8108 13.5999 14.2006 13.7101 15.1096 14.5523C16.1478 15.5511 16.3196 15.9995 16.903 15.9995H18.4345C18.8718 15.9995 19.0905 15.7891 18.9648 15.3737C18.8271 14.9603 18.3311 14.3587 17.6729 13.6469C17.3152 13.2409 16.7808 12.804 16.618 12.5856C16.3909 12.3039 16.4566 12.1796 16.618 11.9295C16.6187 11.9302 18.4848 9.40157 18.679 8.54188Z" fill="white"/>
</svg>
