<svg width="24" height="24" viewBox="0 0 24 24" fill="none" xmlns="http://www.w3.org/2000/svg">
<rect y="0.00012207" width="23.9998" height="23.9998" rx="6" fill="#009245"/>
<path d="M18.7152 8.57235C18.5543 7.96002 18.0821 7.47686 17.4827 7.312C16.3872 7.00512 12.0048 7.00013 12.0048 7.00013C12.0048 7.00013 7.62315 6.99513 6.52702 7.28845C5.93944 7.45188 5.45398 7.94574 5.29169 8.55736C5.0028 9.67497 5 11.993 5 11.993C5 11.993 4.9972 14.3224 5.284 15.4286C5.44489 16.0402 5.91705 16.5234 6.51723 16.6882C7.62385 16.9951 11.9944 17.0001 11.9944 17.0001C11.9944 17.0001 16.3768 17.0051 17.4722 16.7125C18.071 16.5484 18.5452 16.0659 18.7082 15.4543C18.9978 14.3374 18.9999 12.0201 18.9999 12.0201C18.9999 12.0201 19.0139 9.68996 18.7152 8.57235ZM10.603 14.1404L10.6065 9.85839L14.2489 12.003L10.603 14.1404Z" fill="white"/>
</svg>
